<svg xmlns="http://www.w3.org/2000/svg" width="1200" height="675" viewBox="0 0 1200 675" role="img" aria-labelledby="title--images-posts-how-much-monthly-invest-for-100m-cover-svg desc--images-posts-how-much-monthly-invest-for-100m-cover-svg">
<!-- Finmap DCA article SVG: KO target portfolio cover -->
<title id="title--images-posts-how-much-monthly-invest-for-100m-cover-svg">1억원 목표</title>
<desc id="desc--images-posts-how-much-monthly-invest-for-100m-cover-svg">월 납입금 계획</desc>
<defs>
<linearGradient id="bg--images-posts-how-much-monthly-invest-for-100m-cover-svg" x1="0" y1="0" x2="1" y2="1"><stop offset="0" stop-color="#eef7ff"/><stop offset="1" stop-color="#f8fbff"/></linearGradient>
<filter id="cardShadow" x="-10%" y="-10%" width="120%" height="130%"><feDropShadow dx="0" dy="14" stdDeviation="18" flood-color="#0f172a" flood-opacity="0.12"/></filter>
<filter id="softShadow" x="-20%" y="-20%" width="140%" height="150%"><feDropShadow dx="0" dy="8" stdDeviation="10" flood-color="#0f172a" flood-opacity="0.10"/></filter>
<clipPath id="clip-target-cover-0"><rect x="142" y="468" width="280" height="50" rx="12"/></clipPath>
</defs>
<rect width="1200" height="675" fill="url(#bg--images-posts-how-much-monthly-invest-for-100m-cover-svg)"/>
<line x1="70" y1="46" x2="-4" y2="640" stroke="#c9dcf4" stroke-width="1" opacity="0.34"/>
<line x1="202" y1="46" x2="128" y2="640" stroke="#c9dcf4" stroke-width="1" opacity="0.34"/>
<line x1="334" y1="46" x2="260" y2="640" stroke="#c9dcf4" stroke-width="1" opacity="0.34"/>
<line x1="466" y1="46" x2="392" y2="640" stroke="#c9dcf4" stroke-width="1" opacity="0.34"/>
<line x1="598" y1="46" x2="524" y2="640" stroke="#c9dcf4" stroke-width="1" opacity="0.34"/>
<line x1="730" y1="46" x2="656" y2="640" stroke="#c9dcf4" stroke-width="1" opacity="0.34"/>
<line x1="862" y1="46" x2="788" y2="640" stroke="#c9dcf4" stroke-width="1" opacity="0.34"/>
<line x1="994" y1="46" x2="920" y2="640" stroke="#c9dcf4" stroke-width="1" opacity="0.34"/>
<line x1="1126" y1="46" x2="1052" y2="640" stroke="#c9dcf4" stroke-width="1" opacity="0.34"/>
<circle cx="1040" cy="116" r="98" fill="#dbeafe" opacity="0.42"/>
<circle cx="1060" cy="560" r="138" fill="#dcfce7" opacity="0.32"/>
<path d="M72 586 C270 520 330 620 536 548 C720 484 846 540 1120 478" fill="none" stroke="#c9dcf4" stroke-width="3" opacity="0.38"/>
<rect x="78" y="58" width="128" height="38" rx="19" fill="#ffffff" stroke="#c9dcf4" stroke-width="1" opacity="1" filter="url(#softShadow)"/>
<circle cx="101" cy="77" r="7" fill="#2563eb"/>
<text x="118" y="83" font-family="Arial, 'Noto Sans KR', sans-serif" font-size="16" font-weight="700" fill="#5d6b7c" text-anchor="start" opacity="1" letter-spacing="0">DCA 목표</text>
<text x="78" y="130" font-family="Arial, 'Noto Sans KR', sans-serif" font-size="54" font-weight="800" fill="#102033" text-anchor="start" opacity="1" letter-spacing="0">1억원 목표</text>
<text x="82" y="174" font-family="Arial, 'Noto Sans KR', sans-serif" font-size="24" font-weight="600" fill="#5d6b7c" text-anchor="start" opacity="1" letter-spacing="0">월 납입금 계획</text>
<rect x="80" y="205" width="360" height="6" rx="3" fill="#2563eb" stroke="none" stroke-width="1" opacity="0.9"/>
<rect x="588" y="82" width="440" height="394" rx="28" fill="#ffffff" stroke="#e5edf7" stroke-width="1" opacity="1" filter="url(#cardShadow)"/>
<circle cx="808" cy="260" r="122" fill="#dbeafe" stroke="#2563eb" stroke-width="7"/>
<circle cx="808" cy="260" r="76.86" fill="#ffffff" stroke="#10b981" stroke-width="6"/>
<circle cx="808" cy="260" r="39.04" fill="#dcfce7" stroke="#2563eb" stroke-width="6"/>
<circle cx="808" cy="260" r="13.42" fill="#2563eb"/>
<path d="M829.96 238.04 L908.04 159.96" stroke="#102033" stroke-width="7" stroke-linecap="round"/>
<path d="M898.28 142.88 L917.8 159.96 L898.28 172.16 Z" fill="#102033"/>
<circle cx="680" cy="414" r="29" fill="#f59e0b" opacity="1"/>
<circle cx="680" cy="414" r="23" fill="none" stroke="#fff7d6" stroke-width="3" opacity="0.75"/>
<circle cx="720" cy="394" r="29" fill="#f59e0b" opacity="1"/>
<circle cx="720" cy="394" r="23" fill="none" stroke="#fff7d6" stroke-width="3" opacity="0.75"/>
<circle cx="760" cy="416" r="29" fill="#f59e0b" opacity="1"/>
<circle cx="760" cy="416" r="23" fill="none" stroke="#fff7d6" stroke-width="3" opacity="0.75"/>
<circle cx="802" cy="386" r="31" fill="#f59e0b" opacity="1"/>
<circle cx="802" cy="386" r="25" fill="none" stroke="#fff7d6" stroke-width="3" opacity="0.75"/>
<circle cx="840" cy="420" r="28" fill="#f59e0b" opacity="1"/>
<circle cx="840" cy="420" r="22" fill="none" stroke="#fff7d6" stroke-width="3" opacity="0.75"/>
<g><line x1="658" y1="474" x2="942" y2="474" stroke="#c9dcf4" stroke-width="3"/>
<rect x="658" y="452.9" width="59" height="21.1" rx="10" fill="#2563eb" opacity="0.72"/>
<text x="687.5" y="506" font-family="Arial, 'Noto Sans KR', sans-serif" font-size="17" font-weight="700" fill="#5d6b7c" text-anchor="middle" opacity="1" letter-spacing="0">5Y</text>
<rect x="733" y="440" width="59" height="34" rx="10" fill="#10b981" opacity="0.94"/>
<text x="762.5" y="506" font-family="Arial, 'Noto Sans KR', sans-serif" font-size="17" font-weight="700" fill="#5d6b7c" text-anchor="middle" opacity="1" letter-spacing="0">10Y</text>
<rect x="808" y="424.8" width="59" height="49.2" rx="10" fill="#2563eb" opacity="0.94"/>
<text x="837.5" y="506" font-family="Arial, 'Noto Sans KR', sans-serif" font-size="17" font-weight="700" fill="#5d6b7c" text-anchor="middle" opacity="1" letter-spacing="0">15Y</text>
<rect x="883" y="406" width="59" height="68" rx="10" fill="#10b981" opacity="0.94"/>
<text x="912.5" y="506" font-family="Arial, 'Noto Sans KR', sans-serif" font-size="17" font-weight="700" fill="#5d6b7c" text-anchor="middle" opacity="1" letter-spacing="0">20Y</text></g>
<rect x="92" y="278" width="390" height="270" rx="28" fill="#ffffff" stroke="#e5edf7" stroke-width="1" opacity="1" filter="url(#cardShadow)"/>
<text x="132" y="330" font-family="Arial, 'Noto Sans KR', sans-serif" font-size="20" font-weight="600" fill="#5d6b7c" text-anchor="start" opacity="1" letter-spacing="0">목표 금액</text>
<text x="132" y="388" font-family="Arial, 'Noto Sans KR', sans-serif" font-size="48" font-weight="800" fill="#102033" text-anchor="start" opacity="1" letter-spacing="0">100M KRW</text>
<text x="132" y="440" font-family="Arial, 'Noto Sans KR', sans-serif" font-size="20" font-weight="600" fill="#2563eb" text-anchor="start" opacity="1" letter-spacing="0">월 납입금 역산</text>
<g data-chart="line">
<rect x="132" y="458" width="300" height="70" rx="22" fill="#ffffff" stroke="#c9dcf4" stroke-width="1" opacity="1"/>
<line x1="142" y1="480.5" x2="422" y2="480.5" stroke="#c9dcf4" stroke-width="1.2" opacity="0.65"/>
<line x1="142" y1="493" x2="422" y2="493" stroke="#c9dcf4" stroke-width="1.2" opacity="0.65"/>
<line x1="142" y1="505.5" x2="422" y2="505.5" stroke="#c9dcf4" stroke-width="1.2" opacity="0.65"/>
<line x1="142" y1="518" x2="422" y2="518" stroke="#c9dcf4" stroke-width="2"/>
<line x1="142" y1="468" x2="142" y2="518" stroke="#c9dcf4" stroke-width="2"/>
<g clip-path="url(#clip-target-cover-0)"><polyline data-chart-line="1" data-plot="142,468,280,50" points="142,518 212,508.8 282,498.3 352,483.8 422,468" fill="none" stroke="#10b981" stroke-width="5" stroke-linecap="round" stroke-linejoin="round" opacity="1"/></g>
</g>
</svg>