<svg xmlns="http://www.w3.org/2000/svg" width="1200" height="675" viewBox="0 0 1200 675" role="img" aria-labelledby="title--images-posts-how-much-to-invest-monthly-for-target-portfolio-img1-svg desc--images-posts-how-much-to-invest-monthly-for-target-portfolio-img1-svg">
<!-- Finmap DCA article SVG: EN contribution by horizon -->
<title id="title--images-posts-how-much-to-invest-monthly-for-target-portfolio-img1-svg">Monthly Need</title>
<desc id="desc--images-posts-how-much-to-invest-monthly-for-target-portfolio-img1-svg">5Y / 10Y / 15Y / 20Y</desc>
<defs>
<linearGradient id="bg--images-posts-how-much-to-invest-monthly-for-target-portfolio-img1-svg" x1="0" y1="0" x2="1" y2="1"><stop offset="0" stop-color="#eef7ff"/><stop offset="1" stop-color="#f8fbff"/></linearGradient>
<filter id="cardShadow" x="-10%" y="-10%" width="120%" height="130%"><feDropShadow dx="0" dy="14" stdDeviation="18" flood-color="#0f172a" flood-opacity="0.12"/></filter>
<filter id="softShadow" x="-20%" y="-20%" width="140%" height="150%"><feDropShadow dx="0" dy="8" stdDeviation="10" flood-color="#0f172a" flood-opacity="0.10"/></filter>

</defs>
<rect width="1200" height="675" fill="url(#bg--images-posts-how-much-to-invest-monthly-for-target-portfolio-img1-svg)"/>
<line x1="70" y1="46" x2="-4" y2="640" stroke="#c9dcf4" stroke-width="1" opacity="0.34"/>
<line x1="202" y1="46" x2="128" y2="640" stroke="#c9dcf4" stroke-width="1" opacity="0.34"/>
<line x1="334" y1="46" x2="260" y2="640" stroke="#c9dcf4" stroke-width="1" opacity="0.34"/>
<line x1="466" y1="46" x2="392" y2="640" stroke="#c9dcf4" stroke-width="1" opacity="0.34"/>
<line x1="598" y1="46" x2="524" y2="640" stroke="#c9dcf4" stroke-width="1" opacity="0.34"/>
<line x1="730" y1="46" x2="656" y2="640" stroke="#c9dcf4" stroke-width="1" opacity="0.34"/>
<line x1="862" y1="46" x2="788" y2="640" stroke="#c9dcf4" stroke-width="1" opacity="0.34"/>
<line x1="994" y1="46" x2="920" y2="640" stroke="#c9dcf4" stroke-width="1" opacity="0.34"/>
<line x1="1126" y1="46" x2="1052" y2="640" stroke="#c9dcf4" stroke-width="1" opacity="0.34"/>
<circle cx="1040" cy="116" r="98" fill="#dbeafe" opacity="0.42"/>
<circle cx="1060" cy="560" r="138" fill="#dcfce7" opacity="0.32"/>
<path d="M72 586 C270 520 330 620 536 548 C720 484 846 540 1120 478" fill="none" stroke="#c9dcf4" stroke-width="3" opacity="0.38"/>
<rect x="78" y="58" width="192" height="38" rx="19" fill="#ffffff" stroke="#c9dcf4" stroke-width="1" opacity="1" filter="url(#softShadow)"/>
<circle cx="101" cy="77" r="7" fill="#2563eb"/>
<text x="118" y="83" font-family="Arial, 'Noto Sans KR', sans-serif" font-size="16" font-weight="700" fill="#5d6b7c" text-anchor="start" opacity="1" letter-spacing="0">Time horizon</text>
<text x="78" y="130" font-family="Arial, 'Noto Sans KR', sans-serif" font-size="50" font-weight="800" fill="#102033" text-anchor="start" opacity="1" letter-spacing="0">Monthly Need</text>
<text x="82" y="174" font-family="Arial, 'Noto Sans KR', sans-serif" font-size="24" font-weight="600" fill="#5d6b7c" text-anchor="start" opacity="1" letter-spacing="0">5Y / 10Y / 15Y / 20Y</text>
<rect x="80" y="205" width="360" height="6" rx="3" fill="#2563eb" stroke="none" stroke-width="1" opacity="0.9"/>
<rect x="88" y="282" width="232" height="250" rx="28" fill="#ffffff" stroke="#e5edf7" stroke-width="1" opacity="1" filter="url(#cardShadow)"/>
<text x="122" y="340" font-family="Arial, 'Noto Sans KR', sans-serif" font-size="42" font-weight="800" fill="#102033" text-anchor="start" opacity="1" letter-spacing="0">5Y</text>
<text x="124" y="378" font-family="Arial, 'Noto Sans KR', sans-serif" font-size="20" font-weight="600" fill="#5d6b7c" text-anchor="start" opacity="1" letter-spacing="0">High</text>
<rect x="124" y="428" width="156" height="18" rx="9" fill="#edf2f7" stroke="none" stroke-width="1" opacity="1"/>
<rect x="124" y="428" width="127.92" height="18" rx="9" fill="#f59e0b" stroke="none" stroke-width="1" opacity="1"/>
<circle cx="158" cy="486" r="22" fill="#f59e0b" opacity="1"/>
<circle cx="158" cy="486" r="16" fill="none" stroke="#fff7d6" stroke-width="3" opacity="0.75"/>
<circle cx="200" cy="486" r="22" fill="#f59e0b" opacity="1"/>
<circle cx="200" cy="486" r="16" fill="none" stroke="#fff7d6" stroke-width="3" opacity="0.75"/>
<text x="248" y="494" font-family="Arial, 'Noto Sans KR', sans-serif" font-size="22" font-weight="800" fill="#5d6b7c" text-anchor="start" opacity="1" letter-spacing="0">mo</text>
<rect x="358" y="282" width="232" height="250" rx="28" fill="#ffffff" stroke="#e5edf7" stroke-width="1" opacity="1" filter="url(#cardShadow)"/>
<text x="392" y="340" font-family="Arial, 'Noto Sans KR', sans-serif" font-size="42" font-weight="800" fill="#102033" text-anchor="start" opacity="1" letter-spacing="0">10Y</text>
<text x="394" y="378" font-family="Arial, 'Noto Sans KR', sans-serif" font-size="20" font-weight="600" fill="#5d6b7c" text-anchor="start" opacity="1" letter-spacing="0">Mid</text>
<rect x="394" y="428" width="156" height="18" rx="9" fill="#edf2f7" stroke="none" stroke-width="1" opacity="1"/>
<rect x="394" y="428" width="96.72" height="18" rx="9" fill="#2563eb" stroke="none" stroke-width="1" opacity="1"/>
<circle cx="428" cy="486" r="22" fill="#f59e0b" opacity="1"/>
<circle cx="428" cy="486" r="16" fill="none" stroke="#fff7d6" stroke-width="3" opacity="0.75"/>
<circle cx="470" cy="486" r="22" fill="#f59e0b" opacity="1"/>
<circle cx="470" cy="486" r="16" fill="none" stroke="#fff7d6" stroke-width="3" opacity="0.75"/>
<text x="518" y="494" font-family="Arial, 'Noto Sans KR', sans-serif" font-size="22" font-weight="800" fill="#5d6b7c" text-anchor="start" opacity="1" letter-spacing="0">mo</text>
<rect x="628" y="282" width="232" height="250" rx="28" fill="#ffffff" stroke="#e5edf7" stroke-width="1" opacity="1" filter="url(#cardShadow)"/>
<text x="662" y="340" font-family="Arial, 'Noto Sans KR', sans-serif" font-size="42" font-weight="800" fill="#102033" text-anchor="start" opacity="1" letter-spacing="0">15Y</text>
<text x="664" y="378" font-family="Arial, 'Noto Sans KR', sans-serif" font-size="20" font-weight="600" fill="#5d6b7c" text-anchor="start" opacity="1" letter-spacing="0">Low</text>
<rect x="664" y="428" width="156" height="18" rx="9" fill="#edf2f7" stroke="none" stroke-width="1" opacity="1"/>
<rect x="664" y="428" width="65.52" height="18" rx="9" fill="#2563eb" stroke="none" stroke-width="1" opacity="1"/>
<circle cx="698" cy="486" r="22" fill="#f59e0b" opacity="1"/>
<circle cx="698" cy="486" r="16" fill="none" stroke="#fff7d6" stroke-width="3" opacity="0.75"/>
<circle cx="740" cy="486" r="22" fill="#10b981" opacity="1"/>
<circle cx="740" cy="486" r="16" fill="none" stroke="#fff7d6" stroke-width="3" opacity="0.75"/>
<text x="788" y="494" font-family="Arial, 'Noto Sans KR', sans-serif" font-size="22" font-weight="800" fill="#5d6b7c" text-anchor="start" opacity="1" letter-spacing="0">mo</text>
<rect x="898" y="282" width="232" height="250" rx="28" fill="#ffffff" stroke="#e5edf7" stroke-width="1" opacity="1" filter="url(#cardShadow)"/>
<text x="932" y="340" font-family="Arial, 'Noto Sans KR', sans-serif" font-size="42" font-weight="800" fill="#102033" text-anchor="start" opacity="1" letter-spacing="0">20Y</text>
<text x="934" y="378" font-family="Arial, 'Noto Sans KR', sans-serif" font-size="20" font-weight="600" fill="#5d6b7c" text-anchor="start" opacity="1" letter-spacing="0">Lower</text>
<rect x="934" y="428" width="156" height="18" rx="9" fill="#edf2f7" stroke="none" stroke-width="1" opacity="1"/>
<rect x="934" y="428" width="46.800000000000004" height="18" rx="9" fill="#2563eb" stroke="none" stroke-width="1" opacity="1"/>
<circle cx="968" cy="486" r="22" fill="#f59e0b" opacity="1"/>
<circle cx="968" cy="486" r="16" fill="none" stroke="#fff7d6" stroke-width="3" opacity="0.75"/>
<circle cx="1010" cy="486" r="22" fill="#10b981" opacity="1"/>
<circle cx="1010" cy="486" r="16" fill="none" stroke="#fff7d6" stroke-width="3" opacity="0.75"/>
<text x="1058" y="494" font-family="Arial, 'Noto Sans KR', sans-serif" font-size="22" font-weight="800" fill="#5d6b7c" text-anchor="start" opacity="1" letter-spacing="0">mo</text>
</svg>