<svg xmlns="http://www.w3.org/2000/svg" width="1200" height="675" viewBox="0 0 1200 675" role="img" aria-labelledby="title--images-posts-how-much-to-invest-monthly-for-target-portfolio-img3-svg desc--images-posts-how-much-to-invest-monthly-for-target-portfolio-img3-svg">
<!-- Finmap DCA article SVG: EN target levers -->
<title id="title--images-posts-how-much-to-invest-monthly-for-target-portfolio-img3-svg">Three Levers</title>
<desc id="desc--images-posts-how-much-to-invest-monthly-for-target-portfolio-img3-svg">Time · return · contribution</desc>
<defs>
<linearGradient id="bg--images-posts-how-much-to-invest-monthly-for-target-portfolio-img3-svg" x1="0" y1="0" x2="1" y2="1"><stop offset="0" stop-color="#eef7ff"/><stop offset="1" stop-color="#f8fbff"/></linearGradient>
<filter id="cardShadow" x="-10%" y="-10%" width="120%" height="130%"><feDropShadow dx="0" dy="14" stdDeviation="18" flood-color="#0f172a" flood-opacity="0.12"/></filter>
<filter id="softShadow" x="-20%" y="-20%" width="140%" height="150%"><feDropShadow dx="0" dy="8" stdDeviation="10" flood-color="#0f172a" flood-opacity="0.10"/></filter>

</defs>
<rect width="1200" height="675" fill="url(#bg--images-posts-how-much-to-invest-monthly-for-target-portfolio-img3-svg)"/>
<line x1="70" y1="46" x2="-4" y2="640" stroke="#c9dcf4" stroke-width="1" opacity="0.34"/>
<line x1="202" y1="46" x2="128" y2="640" stroke="#c9dcf4" stroke-width="1" opacity="0.34"/>
<line x1="334" y1="46" x2="260" y2="640" stroke="#c9dcf4" stroke-width="1" opacity="0.34"/>
<line x1="466" y1="46" x2="392" y2="640" stroke="#c9dcf4" stroke-width="1" opacity="0.34"/>
<line x1="598" y1="46" x2="524" y2="640" stroke="#c9dcf4" stroke-width="1" opacity="0.34"/>
<line x1="730" y1="46" x2="656" y2="640" stroke="#c9dcf4" stroke-width="1" opacity="0.34"/>
<line x1="862" y1="46" x2="788" y2="640" stroke="#c9dcf4" stroke-width="1" opacity="0.34"/>
<line x1="994" y1="46" x2="920" y2="640" stroke="#c9dcf4" stroke-width="1" opacity="0.34"/>
<line x1="1126" y1="46" x2="1052" y2="640" stroke="#c9dcf4" stroke-width="1" opacity="0.34"/>
<circle cx="1040" cy="116" r="98" fill="#dbeafe" opacity="0.42"/>
<circle cx="1060" cy="560" r="138" fill="#dcfce7" opacity="0.32"/>
<path d="M72 586 C270 520 330 620 536 548 C720 484 846 540 1120 478" fill="none" stroke="#c9dcf4" stroke-width="3" opacity="0.38"/>
<rect x="78" y="58" width="179" height="38" rx="19" fill="#ffffff" stroke="#c9dcf4" stroke-width="1" opacity="1" filter="url(#softShadow)"/>
<circle cx="101" cy="77" r="7" fill="#2563eb"/>
<text x="118" y="83" font-family="Arial, 'Noto Sans KR', sans-serif" font-size="16" font-weight="700" fill="#5d6b7c" text-anchor="start" opacity="1" letter-spacing="0">Plan levers</text>
<text x="78" y="130" font-family="Arial, 'Noto Sans KR', sans-serif" font-size="50" font-weight="800" fill="#102033" text-anchor="start" opacity="1" letter-spacing="0">Three Levers</text>
<text x="82" y="174" font-family="Arial, 'Noto Sans KR', sans-serif" font-size="24" font-weight="600" fill="#5d6b7c" text-anchor="start" opacity="1" letter-spacing="0">Time · return · contribution</text>
<rect x="80" y="205" width="360" height="6" rx="3" fill="#2563eb" stroke="none" stroke-width="1" opacity="0.9"/>
<rect x="118" y="270" width="284" height="266" rx="28" fill="#ffffff" stroke="#e5edf7" stroke-width="1" opacity="1" filter="url(#cardShadow)"/>
<circle cx="258" cy="370" r="48" fill="#dbeafe" stroke="#2563eb" stroke-width="5"/><line x1="258" y1="370" x2="258" y2="340" stroke="#2563eb" stroke-width="7" stroke-linecap="round"/><line x1="258" y1="370" x2="286" y2="388" stroke="#2563eb" stroke-width="7" stroke-linecap="round"/>
<text x="152" y="468" font-family="Arial, 'Noto Sans KR', sans-serif" font-size="34" font-weight="800" fill="#102033" text-anchor="start" opacity="1" letter-spacing="0">Time</text>
<text x="154" y="505" font-family="Arial, 'Noto Sans KR', sans-serif" font-size="20" font-weight="600" fill="#5d6b7c" text-anchor="start" opacity="1" letter-spacing="0">Years</text>
<rect x="456" y="270" width="284" height="266" rx="28" fill="#ffffff" stroke="#e5edf7" stroke-width="1" opacity="1" filter="url(#cardShadow)"/>
<path d="M550 400 L584 368 L612 382 L646 338" fill="none" stroke="#10b981" stroke-width="10" stroke-linecap="round" stroke-linejoin="round"/><circle cx="646" cy="338" r="13" fill="#10b981"/>
<text x="490" y="468" font-family="Arial, 'Noto Sans KR', sans-serif" font-size="34" font-weight="800" fill="#102033" text-anchor="start" opacity="1" letter-spacing="0">Return</text>
<text x="492" y="505" font-family="Arial, 'Noto Sans KR', sans-serif" font-size="20" font-weight="600" fill="#5d6b7c" text-anchor="start" opacity="1" letter-spacing="0">Rate</text>
<rect x="794" y="270" width="284" height="266" rx="28" fill="#ffffff" stroke="#e5edf7" stroke-width="1" opacity="1" filter="url(#cardShadow)"/>
<circle cx="894" cy="396" r="29" fill="#f59e0b" opacity="1"/>
<circle cx="894" cy="396" r="23" fill="none" stroke="#fff7d6" stroke-width="3" opacity="0.75"/>
<circle cx="934" cy="376" r="29" fill="#f59e0b" opacity="1"/>
<circle cx="934" cy="376" r="23" fill="none" stroke="#fff7d6" stroke-width="3" opacity="0.75"/>
<circle cx="974" cy="398" r="29" fill="#f59e0b" opacity="1"/>
<circle cx="974" cy="398" r="23" fill="none" stroke="#fff7d6" stroke-width="3" opacity="0.75"/>
<circle cx="1016" cy="368" r="31" fill="#f59e0b" opacity="1"/>
<circle cx="1016" cy="368" r="25" fill="none" stroke="#fff7d6" stroke-width="3" opacity="0.75"/>
<circle cx="1054" cy="402" r="28" fill="#f59e0b" opacity="1"/>
<circle cx="1054" cy="402" r="22" fill="none" stroke="#fff7d6" stroke-width="3" opacity="0.75"/>
<text x="828" y="468" font-family="Arial, 'Noto Sans KR', sans-serif" font-size="34" font-weight="800" fill="#102033" text-anchor="start" opacity="1" letter-spacing="0">Contribution</text>
<text x="830" y="505" font-family="Arial, 'Noto Sans KR', sans-serif" font-size="20" font-weight="600" fill="#5d6b7c" text-anchor="start" opacity="1" letter-spacing="0">Monthly</text>
</svg>